<svg xmlns="http://www.w3.org/2000/svg" viewBox="0 0 64 64"><ellipse cx="32" cy="52" rx="24" ry="8" fill="#8B5A2B"/><ellipse cx="32" cy="50" rx="24" ry="8" fill="#A06A35"/><rect x="10" y="30" width="4" height="18" rx="2" fill="#7C4A21"/><rect x="26" y="30" width="4" height="18" rx="2" fill="#7C4A21"/><rect x="42" y="30" width="4" height="18" rx="2" fill="#7C4A21"/><rect x="8" y="34" width="48" height="4" rx="2" fill="#96602E"/><rect x="8" y="42" width="48" height="4" rx="2" fill="#96602E"/><circle cx="20" cy="20" r="5" fill="#FF6B9D"/><circle cx="20" cy="20" r="2" fill="#FFD93D"/><circle cx="34" cy="16" r="5" fill="#FF8C42"/><circle cx="34" cy="16" r="2" fill="#FFD93D"/><circle cx="46" cy="22" r="5" fill="#C084FC"/><circle cx="46" cy="22" r="2" fill="#FFD93D"/><path d="M20 25 L20 33 M34 21 L34 33 M46 27 L46 33" stroke="#3E9B4F" stroke-width="3" stroke-linecap="round"/><path d="M20 29 l-5 -2 M20 29 l5 -2" stroke="#3E9B4F" stroke-width="2.5" stroke-linecap="round"/></svg>
